<svg width="24" height="24" viewBox="0 0 24 24" fill="none" xmlns="http://www.w3.org/2000/svg">
<path fill-rule="evenodd" clip-rule="evenodd" d="M14.6065 2.01194C14.5634 2.00426 14.5191 2.00024 14.4738 2.00024C14.4285 2.00024 14.3842 2.00426 14.3411 2.01194H8.08449C5.59719 2.01194 3.50049 4.02977 3.50049 6.49094V17.3399C3.50049 19.9222 5.48593 21.8649 8.08449 21.8649H16.0725C18.5411 21.8649 20.5525 19.82 20.5525 17.3399V8.03794C20.5525 7.8443 20.4776 7.65817 20.3435 7.51849L15.2775 2.24249C15.136 2.0952 14.9407 2.01194 14.7365 2.01194H14.6065ZM13.7238 3.51114L8.08449 3.51194C6.41302 3.51194 5.00049 4.87134 5.00049 6.49094V17.3399C5.00049 19.0864 6.30715 20.3649 8.08449 20.3649H16.0725C17.707 20.3649 19.0525 18.9971 19.0525 17.3399L19.0522 8.98333L18.1757 8.98631C17.8422 8.98591 17.4629 8.9852 17.0412 8.98424C15.2709 8.9805 13.8265 7.59372 13.729 5.84765L13.7238 5.65924V3.51114ZM18.2312 7.48408L17.0445 7.48425C16.0381 7.48212 15.2238 6.66581 15.2238 5.65924V4.35209L18.2312 7.48408ZM14.2946 12.1642C14.7088 12.1642 15.0446 12.5 15.0446 12.9142C15.0446 13.2939 14.7624 13.6077 14.3964 13.6574L14.2946 13.6642H12.5939V15.3654C12.5939 15.7797 12.2581 16.1154 11.8439 16.1154C11.4642 16.1154 11.1504 15.8333 11.1007 15.4672L11.0939 15.3654V13.6642H9.39359C8.97937 13.6642 8.64359 13.3285 8.64359 12.9142C8.64359 12.5345 8.92574 12.2208 9.29182 12.1711L9.39359 12.1642H11.0939V10.4644C11.0939 10.0502 11.4297 9.71444 11.8439 9.71444C12.2236 9.71444 12.5374 9.9966 12.587 10.3627L12.5939 10.4644V12.1642H14.2946Z" fill="white"/>
</svg>
