<svg width="24" height="24" viewBox="0 0 24 24" fill="none" xmlns="http://www.w3.org/2000/svg">
<path fill-rule="evenodd" clip-rule="evenodd" d="M14.4738 2.00024C14.5191 2.00024 14.5634 2.00426 14.6065 2.01194H14.7365C14.9407 2.01194 15.136 2.0952 15.2775 2.24249L20.3435 7.51849C20.4776 7.65817 20.5525 7.8443 20.5525 8.03794V17.3399C20.5525 19.82 18.5411 21.8649 16.0725 21.8649H8.08449C5.48593 21.8649 3.50049 19.9222 3.50049 17.3399V6.49094C3.50049 4.02948 5.59651 2.01194 8.08449 2.01194H14.3411C14.3842 2.00426 14.4285 2.00024 14.4738 2.00024ZM8.08449 3.51194L13.7238 3.51114V5.65924L13.729 5.84765C13.8265 7.59372 15.2709 8.9805 17.0412 8.98424C17.4629 8.9852 17.8422 8.98591 18.1757 8.98631L19.052 8.98333L19.0525 17.3399C19.0525 18.9971 17.707 20.3649 16.0725 20.3649H8.08449C6.30715 20.3649 5.00049 19.0864 5.00049 17.3399V6.49094C5.00049 4.87098 6.4124 3.51194 8.08449 3.51194ZM17.0445 7.48425L18.231 7.48408L15.2238 4.3523V5.65924C15.2238 6.66581 16.0381 7.48212 17.0445 7.48425ZM15.0441 13.7472C15.0441 13.333 14.7083 12.9972 14.2941 12.9972H9.39309L9.29132 13.0041C8.92524 13.0538 8.64309 13.3675 8.64309 13.7472C8.64309 14.1615 8.97887 14.4972 9.39309 14.4972H14.2941L14.3959 14.4904C14.7619 14.4407 15.0441 14.1269 15.0441 13.7472Z" fill="white"/>
</svg>
