<svg width="20" height="20" viewBox="0 0 20 20" fill="none" xmlns="http://www.w3.org/2000/svg">
<path d="M7.63118 17.3095V14.7539C7.63116 14.1039 8.16109 13.5757 8.81767 13.5713H11.2227C11.8824 13.5713 12.4173 14.1008 12.4173 14.7539V14.7539V17.3174C12.4171 17.8693 12.862 18.3204 13.4194 18.3333H15.0227C16.6211 18.3333 17.9168 17.0506 17.9168 15.4682V15.4682V8.19819C17.9083 7.57568 17.6131 6.99111 17.1151 6.61085L11.6316 2.23774C10.6709 1.4763 9.30533 1.4763 8.34468 2.23774L2.88518 6.61879C2.38538 6.99751 2.08965 7.58305 2.0835 8.20612V15.4682C2.0835 17.0506 3.37923 18.3333 4.97759 18.3333H6.58096C7.15212 18.3333 7.61514 17.8749 7.61514 17.3095V17.3095" stroke="#3B547F" stroke-linecap="round" stroke-linejoin="round"/>
</svg>
