<svg width="20" height="20" viewBox="0 0 20 20" fill="none" xmlns="http://www.w3.org/2000/svg">
<path d="M14.6621 9.10989C15.9974 9.10989 17.0806 8.02746 17.0806 6.69218C17.0806 5.35691 15.9974 4.27448 14.6621 4.27448" stroke="#3B547F" stroke-linecap="round" stroke-linejoin="round"/>
<path d="M15.7739 11.7373C16.1727 11.7648 16.5691 11.8213 16.9595 11.9092C17.5018 12.0154 18.1542 12.2377 18.3864 12.7242C18.5346 13.0359 18.5346 13.3988 18.3864 13.7112C18.155 14.1978 17.5018 14.4193 16.9595 14.5308" stroke="#3B547F" stroke-linecap="round" stroke-linejoin="round"/>
<path d="M5.24171 9.10989C3.90644 9.10989 2.82324 8.02746 2.82324 6.69218C2.82324 5.35691 3.90644 4.27448 5.24171 4.27448" stroke="#3B547F" stroke-linecap="round" stroke-linejoin="round"/>
<path d="M4.1297 11.7373C3.73095 11.7648 3.3345 11.8213 2.94415 11.9092C2.40179 12.0154 1.74943 12.2377 1.51797 12.7242C1.36901 13.0359 1.36901 13.3988 1.51797 13.7112C1.74866 14.1978 2.40179 14.4193 2.94415 14.5308" stroke="#3B547F" stroke-linecap="round" stroke-linejoin="round"/>
<path fill-rule="evenodd" clip-rule="evenodd" d="M9.94789 12.258C12.6536 12.258 14.9651 12.6674 14.9651 14.306C14.9651 15.9437 12.6689 16.3685 9.94789 16.3685C7.24143 16.3685 4.93066 15.959 4.93066 14.3205C4.93066 12.6819 7.22691 12.258 9.94789 12.258Z" stroke="#3B547F" stroke-linecap="round" stroke-linejoin="round"/>
<path fill-rule="evenodd" clip-rule="evenodd" d="M9.94812 9.92077C8.16367 9.92077 6.73291 8.49001 6.73291 6.7048C6.73291 4.92036 8.16367 3.48959 9.94812 3.48959C11.7326 3.48959 13.1633 4.92036 13.1633 6.7048C13.1633 8.49001 11.7326 9.92077 9.94812 9.92077Z" stroke="#3B547F" stroke-linecap="round" stroke-linejoin="round"/>
</svg>
