<svg width="20" height="20" viewBox="0 0 20 20" fill="none" xmlns="http://www.w3.org/2000/svg">
<path d="M7.61248 17.3111V14.763C7.61248 14.1125 8.14364 13.5852 8.79886 13.5852H11.194C11.5087 13.5852 11.8104 13.7093 12.0329 13.9302C12.2554 14.1511 12.3804 14.4506 12.3804 14.763V17.3111C12.3784 17.5815 12.4852 17.8416 12.6771 18.0335C12.8691 18.2254 13.1302 18.3333 13.4026 18.3333H15.0367C15.7999 18.3353 16.5325 18.0357 17.0728 17.5007C17.6132 16.9656 17.9168 16.2391 17.9168 15.4815V8.22237C17.9168 7.61037 17.6436 7.02986 17.1707 6.63721L11.6118 2.22988C10.6449 1.45712 9.25942 1.48207 8.32132 2.28914L2.88934 6.63721C2.39411 7.01828 2.09812 7.60052 2.0835 8.22237V15.4741C2.0835 17.0532 3.37298 18.3333 4.96364 18.3333H6.5604C7.12618 18.3333 7.58599 17.8802 7.59009 17.3185L7.61248 17.3111Z" fill="#3B547F"/>
</svg>
