<svg width="20" height="20" viewBox="0 0 20 20" fill="none" xmlns="http://www.w3.org/2000/svg">
<path fill-rule="evenodd" clip-rule="evenodd" d="M8.24596 9.35834C7.88138 9.35834 7.5931 9.64167 7.5931 10C7.5931 10.35 7.88138 10.6417 8.24596 10.6417H13.3332V14.625C13.3332 16.6667 11.6459 18.3333 9.56016 18.3333H5.43104C3.35376 18.3333 1.6665 16.675 1.6665 14.6333V5.37501C1.6665 3.325 3.36224 1.66667 5.43952 1.66667H9.57711C11.6459 1.66667 13.3332 3.32501 13.3332 5.36667V9.35834H8.24596ZM16.3583 7.11684L18.7917 9.54184C18.9167 9.66684 18.9833 9.82517 18.9833 10.0002C18.9833 10.1668 18.9167 10.3335 18.7917 10.4502L16.3583 12.8752C16.2333 13.0002 16.0667 13.0668 15.9083 13.0668C15.7417 13.0668 15.575 13.0002 15.45 12.8752C15.2 12.6252 15.2 12.2168 15.45 11.9668L16.7833 10.6418H13.3333V9.35851H16.7833L15.45 8.03351C15.2 7.78351 15.2 7.37517 15.45 7.12517C15.7 6.86684 16.1083 6.86684 16.3583 7.11684Z" fill="#3B547F"/>
</svg>
