<svg width="20" height="20" viewBox="0 0 20 20" fill="none" xmlns="http://www.w3.org/2000/svg">
<path fill-rule="evenodd" clip-rule="evenodd" d="M13.4654 6.86071C13.4654 8.81877 11.9044 10.3888 9.95769 10.3888C8.01093 10.3888 6.44995 8.81877 6.44995 6.86071C6.44995 4.90189 8.01093 3.33333 9.95769 3.33333C11.9044 3.33333 13.4654 4.90189 13.4654 6.86071ZM9.95769 16.6667C7.09837 16.6667 4.6569 16.2134 4.6569 14.4001C4.6569 12.5862 7.0827 12.1163 9.95769 12.1163C12.817 12.1163 15.2585 12.5697 15.2585 14.3836C15.2585 16.1968 12.8327 16.6667 9.95769 16.6667ZM14.9644 6.92435C14.9644 7.92252 14.6667 8.8524 14.1444 9.62542C14.0906 9.70497 14.1384 9.81229 14.2332 9.8288C14.3637 9.85132 14.4988 9.86408 14.6361 9.86783C16.0053 9.90386 17.2343 9.01751 17.5738 7.68311C18.0767 5.70102 16.6 3.92157 14.7197 3.92157C14.5152 3.92157 14.3197 3.94334 14.1294 3.98237C14.1033 3.98837 14.0757 4.00038 14.0608 4.02364C14.0429 4.05216 14.0563 4.09044 14.0742 4.11521C14.6391 4.91149 14.9644 5.88265 14.9644 6.92435ZM17.232 11.2605C18.152 11.4413 18.7572 11.8106 19.0079 12.3472C19.2198 12.7877 19.2198 13.2988 19.0079 13.7386C18.6244 14.5709 17.388 14.8381 16.9074 14.9072C16.8082 14.9222 16.7284 14.8359 16.7388 14.7361C16.9843 12.4298 15.0316 11.3363 14.5264 11.0849C14.5048 11.0736 14.5003 11.0563 14.5025 11.0458C14.504 11.0383 14.513 11.0263 14.5294 11.0241C15.6225 11.0038 16.7977 11.1539 17.232 11.2605ZM5.36442 9.86776C5.50172 9.864 5.63603 9.85199 5.76735 9.82873C5.86212 9.81222 5.90987 9.7049 5.85615 9.62534C5.33383 8.85232 5.03611 7.92245 5.03611 6.92427C5.03611 5.88257 5.36144 4.91142 5.92629 4.11513C5.94419 4.09036 5.95688 4.05209 5.93972 4.02357C5.92479 4.00105 5.89644 3.98829 5.87107 3.98229C5.68005 3.94326 5.48455 3.9215 5.2801 3.9215C3.39976 3.9215 1.92309 5.70095 2.42675 7.68303C2.76626 9.01743 3.9952 9.90378 5.36442 9.86776ZM5.49761 11.0454C5.49985 11.0566 5.49537 11.0731 5.47448 11.0852C4.96858 11.3366 3.01585 12.4301 3.26134 14.7356C3.27179 14.8362 3.1927 14.9217 3.09346 14.9075C2.61292 14.8384 1.37652 14.5712 0.99299 13.7389C0.780332 13.2984 0.780332 12.788 0.99299 12.3475C1.2437 11.8109 1.8481 11.4416 2.76813 11.26C3.20314 11.1542 4.37761 11.0041 5.4715 11.0244C5.48791 11.0266 5.49612 11.0386 5.49761 11.0454Z" fill="#3B547F"/>
</svg>
