<svg width="20" height="20" viewBox="0 0 20 20" fill="none" xmlns="http://www.w3.org/2000/svg">
<path d="M9.99295 7.80488C11.1834 7.80488 12.1358 8.78049 12.1358 10C12.1358 11.2195 11.1834 12.1951 9.99295 12.1951C8.80248 12.1951 7.8501 11.2195 7.8501 10C7.8501 8.78049 8.80248 7.80488 9.99295 7.80488ZM7.8501 2.19512C7.8501 3.41463 8.80248 4.39024 9.99295 4.39024C11.1834 4.39024 12.1358 3.41463 12.1358 2.19512C12.1358 0.97561 11.1834 0 9.99295 0C8.80248 0 7.8501 0.97561 7.8501 2.19512ZM7.8501 17.8049C7.8501 19.0244 8.80248 20 9.99295 20C11.1834 20 12.1358 19.0244 12.1358 17.8049C12.1358 16.5854 11.1834 15.6098 9.99295 15.6098C8.80248 15.6098 7.8501 16.5854 7.8501 17.8049Z" fill="#3B547F"/>
</svg>
