<svg width="25" height="24" viewBox="0 0 25 24" fill="none" xmlns="http://www.w3.org/2000/svg">
<path fill-rule="evenodd" clip-rule="evenodd" d="M15.1065 2.0119C15.0634 2.00421 15.0191 2.0002 14.9738 2.0002C14.9285 2.0002 14.8842 2.00421 14.8411 2.0119H8.58351C6.09622 2.0119 3.99951 4.02973 3.99951 6.4909V17.2039C3.99951 19.8045 6.00411 21.8649 8.58351 21.8649H16.5725C19.0258 21.8649 21.0515 19.703 21.0515 17.2039V8.0379C21.0515 7.84428 20.9766 7.65817 20.8426 7.5185L15.7775 2.2425C15.6361 2.09518 15.4407 2.0119 15.2365 2.0119H15.1065ZM14.2238 3.5111L8.58351 3.5119C6.91205 3.5119 5.49951 4.8713 5.49951 6.4909V17.2039C5.49951 18.9851 6.8419 20.3649 8.58351 20.3649H16.5725C18.1748 20.3649 19.5515 18.8956 19.5515 17.2039L19.5509 8.98328L18.6754 8.98627C18.3417 8.98586 17.9622 8.98516 17.5402 8.9842C15.7707 8.98046 14.3265 7.59348 14.2291 5.84759L14.2238 5.6592V3.5111ZM18.73 7.48404L17.5435 7.4842C16.538 7.48207 15.7238 6.66565 15.7238 5.6592V4.35264L18.73 7.48404ZM14.7838 14.8078C15.198 14.8078 15.5338 15.1436 15.5338 15.5578C15.5338 15.9375 15.2517 16.2513 14.8856 16.301L14.7838 16.3078H9.38681C8.9726 16.3078 8.63681 15.972 8.63681 15.5578C8.63681 15.1781 8.91897 14.8643 9.28504 14.8146L9.38681 14.8078H14.7838ZM13.4923 10.6056C13.4923 10.1914 13.1565 9.8556 12.7423 9.8556H9.38631L9.28454 9.86244C8.91847 9.91211 8.63631 10.2259 8.63631 10.6056C8.63631 11.0198 8.9721 11.3556 9.38631 11.3556H12.7423L12.8441 11.3488C13.2102 11.2991 13.4923 10.9853 13.4923 10.6056Z" fill="white"/>
</svg>
