<svg width="25" height="25" viewBox="0 0 25 25" fill="none" xmlns="http://www.w3.org/2000/svg">
<path fill-rule="evenodd" clip-rule="evenodd" d="M21.2686 3.87107C20.9635 3.57081 20.4689 3.57081 20.1638 3.87107L17.989 6.01136C16.309 4.85723 14.4329 4.24528 12.5002 4.24528C10.3576 4.24528 8.27876 4.99527 6.47783 6.39797C4.69864 7.77506 3.21575 9.76109 2.1475 12.196C2.06239 12.39 2.06215 12.6099 2.14684 12.804C3.06936 14.919 4.30847 16.6933 5.78604 18.0207L3.73253 20.0417L3.65688 20.1279C3.42995 20.4289 3.45517 20.8561 3.73253 21.129C4.03762 21.4293 4.53228 21.4293 4.83738 21.129L21.2686 4.9584L21.3443 4.87216C21.5712 4.57117 21.546 4.14403 21.2686 3.87107ZM6.89221 16.9321L9.11915 14.7405C8.66953 14.0892 8.42308 13.3178 8.42308 12.5013C8.42308 10.2796 10.2436 8.48681 12.5002 8.48681C13.3253 8.48681 14.1176 8.73106 14.7779 9.17147L16.8639 7.11861C15.5018 6.2402 14.0173 5.78299 12.5002 5.78299C10.7192 5.78299 8.97924 6.41071 7.44562 7.60521C5.97705 8.74188 4.71834 10.3758 3.76794 12.3963L3.71933 12.5015L3.76657 12.6045C4.59258 14.3697 5.65693 15.8374 6.89221 16.9321ZM13.6392 10.2921C13.2937 10.1189 12.9039 10.0245 12.5002 10.0245C11.1068 10.0245 9.98558 11.1287 9.98558 12.5013C9.98558 12.9011 10.0801 13.2808 10.2572 13.6205L13.6392 10.2921ZM15.7674 12.3082L15.873 12.3198C16.2977 12.3949 16.58 12.7946 16.5037 13.2126C16.2043 14.8507 14.8951 16.1417 13.2316 16.4389C12.807 16.5147 12.4004 16.2375 12.3234 15.8197C12.2463 15.4019 12.528 15.0017 12.9525 14.9259C13.9744 14.7433 14.7819 13.9471 14.9658 12.9404C15.0358 12.5573 15.383 12.2919 15.7674 12.3082ZM19.7887 8.66086C20.1334 8.40549 20.6232 8.4735 20.8827 8.81275C21.6387 9.80123 22.2994 10.936 22.8526 12.1951C22.9381 12.3896 22.9382 12.6103 22.8529 12.8049C20.689 17.7385 16.8069 20.7547 12.5002 20.7547C11.5197 20.7547 10.5497 20.5986 9.61534 20.2918C9.20606 20.1573 8.985 19.7218 9.12159 19.3191C9.25819 18.9163 9.70071 18.6987 10.11 18.8331C10.8853 19.0878 11.6884 19.217 12.5002 19.217C15.9425 19.217 19.1471 16.8609 21.1176 12.8436L21.2797 12.5015L21.2246 12.3798C20.8281 11.54 20.3798 10.7698 19.8854 10.0773L19.6343 9.73753C19.3748 9.39828 19.4439 8.91624 19.7887 8.66086Z" fill="#B0B0B0"/>
</svg>
