<svg width="25" height="25" viewBox="0 0 25 25" fill="none" xmlns="http://www.w3.org/2000/svg">
<path fill-rule="evenodd" clip-rule="evenodd" d="M12.8004 4.17165L12.5022 4.16663C8.18878 4.16663 4.30148 7.2115 2.14695 12.1935C2.06235 12.3892 2.06235 12.6107 2.14695 12.8064L2.29624 13.1425C4.42348 17.8053 8.09958 20.692 12.1999 20.8283L12.4981 20.8333C16.8115 20.8333 20.6988 17.7884 22.8534 12.8064C22.939 12.6083 22.9379 12.3837 22.8503 12.1865L22.7052 11.86C20.5728 7.18841 16.8951 4.30774 12.8004 4.17165ZM12.5095 5.7181L12.7584 5.72346L13.0366 5.73793C16.367 5.97375 19.4299 8.44322 21.2804 12.499L21.2707 12.5241C19.3738 16.6671 16.2053 19.1513 12.7698 19.276L12.5043 19.28L12.2365 19.2764L11.9591 19.2619C8.73216 19.0334 5.7568 16.7025 3.89511 12.8746L3.71891 12.499L3.88201 12.1522C5.84514 8.09699 9.05379 5.71899 12.5095 5.7181ZM12.4996 8.45148C10.2492 8.45148 8.42568 10.2636 8.42568 12.5002C8.42568 14.7359 10.2494 16.5478 12.4996 16.5478C14.75 16.5478 16.5746 14.7357 16.5746 12.5002C16.5746 10.2638 14.7502 8.45148 12.4996 8.45148ZM12.4996 10.0039C13.8873 10.0039 15.0121 11.1212 15.0121 12.5002C15.0121 13.8782 13.8872 14.9954 12.4996 14.9954C11.1124 14.9954 9.98818 13.8785 9.98818 12.5002C9.98818 11.1209 11.1122 10.0039 12.4996 10.0039Z" fill="#B0B0B0"/>
</svg>
