<svg width="20" height="20" viewBox="0 0 20 20" fill="none" xmlns="http://www.w3.org/2000/svg">
<path fill-rule="evenodd" clip-rule="evenodd" d="M11.6211 10.7417C11.8604 10.9833 12.2482 10.9833 12.4875 10.7417C12.735 10.5 12.735 10.1083 12.4957 9.86666L10.1277 7.46666C10.07 7.40832 10.004 7.36666 9.92971 7.33332C9.85545 7.29999 9.78119 7.28332 9.69868 7.28332C9.61617 7.28332 9.53367 7.29999 9.45941 7.33332C9.38515 7.36666 9.31914 7.40832 9.26139 7.46666L6.90165 9.86666C6.66238 10.1083 6.66238 10.5 6.90165 10.7417C7.14093 10.9833 7.52872 10.9833 7.76799 10.7417L9.07987 9.40832V13.4333C9.07987 13.775 9.35215 14.05 9.69868 14.05C10.037 14.05 10.3092 13.775 10.3092 13.4333V9.40832L11.6211 10.7417ZM16.1066 7.52133C16.3006 7.51909 16.5118 7.51666 16.7036 7.51666C16.9099 7.51666 17.0832 7.68332 17.0832 7.89166V14.5917C17.0832 16.6583 15.4165 18.3333 13.3703 18.3333H6.81089C4.65743 18.3333 2.9165 16.575 2.9165 14.4083V5.42499C2.9165 3.35832 4.57492 1.66666 6.63763 1.66666H11.0436C11.2498 1.66666 11.4231 1.84166 11.4231 2.04999V4.73332C11.4231 6.25832 12.6607 7.50832 14.1789 7.51666C14.5259 7.51666 14.834 7.51928 15.1047 7.52158C15.3166 7.52338 15.5056 7.52499 15.6723 7.52499C15.7897 7.52499 15.942 7.52323 16.1066 7.52133ZM16.337 6.30499C15.6588 6.30749 14.8602 6.30499 14.2851 6.29916C13.3725 6.29916 12.6209 5.53999 12.6209 4.61832V2.42166C12.6209 2.06249 13.0516 1.88416 13.2983 2.14332C13.9339 2.81019 14.907 3.83231 15.7292 4.696C16.0619 5.04543 16.3699 5.36893 16.6209 5.63249C16.861 5.88499 16.6844 6.30416 16.337 6.30499Z" fill="#3B547F"/>
</svg>
