<svg width="150" height="28" viewBox="0 0 150 28" fill="none" xmlns="http://www.w3.org/2000/svg">
<path d="M0 21.5875L2.8771 26.2313C3.1631 26.7631 3.60178 27.2101 4.14412 27.5225C4.68646 27.8348 5.3111 28.0002 5.94824 28H25.0441L21.0831 21.5875H0ZM33.4413 19.875L22.3209 1.70625C22.0283 1.19095 21.5909 0.759841 21.0557 0.459232C20.5205 0.158622 19.9078 -0.000137711 19.2833 8.96299e-08H13.3685L30.5842 27.975L33.3074 23.5688C33.4346 23.3687 34.7125 21.7125 33.4413 19.875ZM18.2662 17.0312L10.5382 4.53125L2.81019 17.0312H18.2662Z" fill="white"/>
<path d="M46.0227 26V2.72727H61.4659V6.78409H50.9432V11.3295H54.7273C56.5682 11.3295 58.1553 11.6288 59.4886 12.2273C60.8295 12.8182 61.8636 13.6553 62.5909 14.7386C63.3182 15.822 63.6818 17.0985 63.6818 18.5682C63.6818 20.0303 63.3182 21.322 62.5909 22.4432C61.8636 23.5568 60.8295 24.428 59.4886 25.0568C58.1553 25.6856 56.5682 26 54.7273 26H46.0227ZM50.9432 22.0455H54.7273C55.6061 22.0455 56.3485 21.8864 56.9545 21.5682C57.5606 21.2424 58.0189 20.8144 58.3295 20.2841C58.6477 19.7462 58.8068 19.1591 58.8068 18.5227C58.8068 17.5985 58.4545 16.8182 57.75 16.1818C57.053 15.5379 56.0455 15.2159 54.7273 15.2159H50.9432V22.0455ZM82.3097 2.72727V6.78409H71.7869V26H66.8665V2.72727H82.3097ZM87.9716 26.3182V22.3182H89.233C89.8617 22.3182 90.3693 22.2424 90.7557 22.0909C91.142 21.9318 91.4489 21.7008 91.6761 21.3977C91.911 21.0871 92.108 20.7008 92.267 20.2386L92.5511 19.4773L84.0966 2.72727H89.1875L94.6648 14.1818L99.2443 2.72727H104.267L96.2443 21.4318C95.858 22.2955 95.3996 23.0985 94.8693 23.8409C94.3466 24.5833 93.6761 25.1818 92.858 25.6364C92.0398 26.0909 90.9943 26.3182 89.7216 26.3182H87.9716ZM106.929 2.72727H111.838V17.3636H112.031L122.088 2.72727H126.395V26H121.474V11.3523H121.304L111.19 26H106.929V2.72727ZM130.46 26V2.72727H139.642C141.407 2.72727 142.911 3.06439 144.153 3.73864C145.396 4.4053 146.343 5.33333 146.994 6.52273C147.653 7.70454 147.983 9.06818 147.983 10.6136C147.983 12.1591 147.65 13.5227 146.983 14.7045C146.316 15.8864 145.35 16.8068 144.085 17.4659C142.828 18.125 141.305 18.4545 139.517 18.4545H133.665V14.5114H138.722C139.669 14.5114 140.449 14.3485 141.062 14.0227C141.684 13.6894 142.146 13.2311 142.449 12.6477C142.759 12.0568 142.915 11.3788 142.915 10.6136C142.915 9.84091 142.759 9.16667 142.449 8.59091C142.146 8.00757 141.684 7.55682 141.062 7.23864C140.441 6.91288 139.653 6.75 138.699 6.75H135.381V26H130.46Z" fill="white"/>
</svg>
