<svg width="2064" height="100" viewBox="0 0 2064 100" fill="none" xmlns="http://www.w3.org/2000/svg">
<path d="M7.69226 68.6001L14.8778 80.1979C15.5921 81.5261 16.6877 82.6427 18.0422 83.4228C19.3967 84.2029 20.9567 84.6158 22.548 84.6154H70.2401L60.3474 68.6001H7.69226ZM91.2119 64.3232L63.4389 18.9467C62.7079 17.6597 61.6155 16.583 60.2788 15.8322C58.9422 15.0815 57.4119 14.685 55.8523 14.6853H41.0801L84.0765 84.5529L90.8777 73.5483C91.1952 73.0488 94.3869 68.9123 91.2119 64.3232ZM53.3122 57.2209L34.0115 26.0021L14.7107 57.2209H53.3122Z" fill="#5F75A7"/>
<path d="M118.793 72V28.3636H147.749V35.9702H128.018V44.4929H135.114C138.565 44.4929 141.541 45.054 144.041 46.1761C146.555 47.2841 148.494 48.8537 149.858 50.8849C151.222 52.9162 151.903 55.3097 151.903 58.0653C151.903 60.8068 151.222 63.2287 149.858 65.331C148.494 67.419 146.555 69.0526 144.041 70.2315C141.541 71.4105 138.565 72 135.114 72H118.793ZM128.018 64.5852H135.114C136.761 64.5852 138.153 64.2869 139.29 63.6903C140.426 63.0795 141.286 62.277 141.868 61.2827C142.464 60.2741 142.763 59.1733 142.763 57.9801C142.763 56.2472 142.102 54.7841 140.781 53.5909C139.474 52.3835 137.585 51.7798 135.114 51.7798H128.018V64.5852ZM186.831 28.3636V35.9702H167.1V72H157.875V28.3636H186.831ZM197.447 72.5966V65.0966H199.812C200.991 65.0966 201.942 64.9545 202.667 64.6705C203.391 64.3722 203.967 63.9389 204.393 63.3707C204.833 62.7884 205.202 62.0639 205.501 61.1974L206.033 59.7699L190.181 28.3636H199.727L209.996 49.8409L218.583 28.3636H228.001L212.958 63.4347C212.234 65.054 211.374 66.5597 210.38 67.9517C209.4 69.3437 208.143 70.4659 206.609 71.3182C205.075 72.1705 203.114 72.5966 200.728 72.5966H197.447ZM232.992 28.3636H242.196V55.8068H242.559L261.415 28.3636H269.49V72H260.265V44.5355H259.945L240.982 72H232.992V28.3636ZM277.113 72V28.3636H294.329C297.638 28.3636 300.458 28.9957 302.788 30.2599C305.117 31.5099 306.893 33.25 308.114 35.4801C309.35 37.696 309.968 40.2528 309.968 43.1506C309.968 46.0483 309.343 48.6051 308.093 50.821C306.843 53.0369 305.032 54.7628 302.66 55.9986C300.302 57.2344 297.447 57.8523 294.094 57.8523H283.121V50.4588H292.603C294.379 50.4588 295.842 50.1534 296.992 49.5426C298.157 48.9176 299.023 48.0582 299.592 46.9645C300.174 45.8565 300.465 44.5852 300.465 43.1506C300.465 41.7017 300.174 40.4375 299.592 39.358C299.023 38.2642 298.157 37.419 296.992 36.8224C295.827 36.2116 294.35 35.9062 292.56 35.9062H286.339V72H277.113ZM319.045 72.554C317.638 72.554 316.431 72.0568 315.423 71.0625C314.428 70.054 313.931 68.8466 313.931 67.4403C313.931 66.0483 314.428 64.8551 315.423 63.8608C316.431 62.8665 317.638 62.3693 319.045 62.3693C320.408 62.3693 321.602 62.8665 322.624 63.8608C323.647 64.8551 324.158 66.0483 324.158 67.4403C324.158 68.3778 323.917 69.2372 323.434 70.0185C322.965 70.7855 322.347 71.4034 321.58 71.8722C320.813 72.3267 319.968 72.554 319.045 72.554ZM368.876 28.3636V72H359.757V35.8636H342.115V72H332.995V28.3636H368.876ZM375.295 72V64.5852L376.531 64.4787C378.121 64.3509 379.407 63.7472 380.387 62.6676C381.367 61.5739 382.099 59.8338 382.582 57.4474C383.079 55.0469 383.398 51.8224 383.54 47.7741L384.265 28.3636H413.881V72H404.911V35.7571H392.83L392.148 50.9489C391.921 55.8352 391.339 59.8267 390.401 62.9233C389.478 66.0199 388.001 68.3068 385.969 69.7841C383.952 71.2614 381.19 72 377.681 72H375.295ZM429.009 72H419.123L434.187 28.3636H446.076L461.119 72H451.232L440.302 38.3352H439.961L429.009 72ZM428.391 54.848H451.744V62.0497H428.391V54.848ZM495.327 28.3636V35.9702H475.597V72H466.371V28.3636H495.327ZM501.234 28.3636H510.439V55.8068H510.801L529.657 28.3636H537.733V72H528.507V44.5355H528.187L509.224 72H501.234V28.3636ZM552.876 72H542.99L558.054 28.3636H569.943L584.986 72H575.099L564.169 38.3352H563.828L552.876 72ZM552.259 54.848H575.611V62.0497H552.259V54.848ZM583.244 35.9702V28.3636H619.082V35.9702H605.723V72H596.603V35.9702H583.244Z" fill="#5F75A7"/>
</svg>
