<?xml version="1.0" encoding="utf-8"?><svg viewBox="0 0 25 25" xmlns="http://www.w3.org/2000/svg" xmlns:xlink="http://www.w3.org/1999/xlink"><style>:root>svg{display:none}:root>svg:target{display:block}</style><svg viewBox="0 0 24 24" id="arrow-down-profile" xmlns="http://www.w3.org/2000/svg"><path d="M4.241 7.746a.811.811 0 011.072-.081l.092.08L12 14.474l6.595-6.727a.811.811 0 011.072-.081l.092.08a.852.852 0 01.08 1.094l-.08.094-7.177 7.321a.811.811 0 01-1.072.081l-.092-.08-7.177-7.322a.852.852 0 010-1.187z"/></svg><svg viewBox="0 0 24 24" id="close-file" xmlns="http://www.w3.org/2000/svg"><path d="M14.396 9.595l-4.792 4.792m4.794.003L9.602 9.593"/><path clip-rule="evenodd" d="M16.335 2.75H7.666c-3.021 0-4.915 2.14-4.915 5.166v8.168c0 3.027 1.885 5.166 4.915 5.166h8.668c3.031 0 4.917-2.139 4.917-5.166V7.916c0-3.027-1.886-5.166-4.916-5.166z"/></svg><svg viewBox="0 0 24 24" id="docs-neg" xmlns="http://www.w3.org/2000/svg"><path fill-rule="evenodd" clip-rule="evenodd" d="M14.474 2c.045 0 .09.004.133.012h.13c.204 0 .399.083.54.23l5.066 5.276a.75.75 0 01.21.52v9.302c0 2.48-2.012 4.525-4.48 4.525H8.084c-2.598 0-4.584-1.943-4.584-4.525V6.49c0-2.46 2.097-4.478 4.584-4.478h6.257A.756.756 0 0114.474 2zm-6.39 1.512h5.64v2.147l.005.189a3.325 3.325 0 003.312 3.136l1.135.002.876-.003v8.357c0 1.657-1.345 3.025-2.98 3.025H8.085C6.307 20.365 5 19.086 5 17.34V6.49c0-1.619 1.412-2.978 3.084-2.978zm8.96 3.972h1.187l-3.007-3.132V5.66c0 1.007.814 1.823 1.82 1.825zm-2 6.263a.75.75 0 00-.75-.75h-4.9l-.103.007a.75.75 0 00.102 1.493h4.901l.102-.007a.75.75 0 00.648-.743z"/></svg><svg viewBox="0 0 24 24" id="docs-plus" xmlns="http://www.w3.org/2000/svg"><path fill-rule="evenodd" clip-rule="evenodd" d="M14.607 2.012a.756.756 0 00-.266 0H8.084C5.597 2.012 3.5 4.03 3.5 6.49v10.85c0 2.582 1.986 4.525 4.584 4.525h7.989c2.468 0 4.48-2.045 4.48-4.525V8.038a.75.75 0 00-.21-.52l-5.066-5.276a.75.75 0 00-.54-.23h-.13zm-.883 1.5h-5.64C6.413 3.512 5 4.872 5 6.49v10.85c0 1.746 1.307 3.025 3.084 3.025h7.989c1.634 0 2.98-1.368 2.98-3.025V8.983l-.877.003c-.334 0-.713 0-1.135-.002a3.325 3.325 0 01-3.312-3.136l-.005-.189V3.511zm4.507 3.972h-1.187a1.825 1.825 0 01-1.82-1.825V4.352l3.007 3.132zm-3.936 4.68a.75.75 0 01.101 1.493l-.101.007h-1.701v1.701a.75.75 0 01-1.493.102l-.007-.102v-1.7h-1.7a.75.75 0 01-.102-1.494l.102-.007h1.7v-1.7a.75.75 0 011.493-.101l.007.101v1.7h1.7z"/></svg><svg viewBox="0 0 24 24" id="dropdown-arrow" xmlns="http://www.w3.org/2000/svg"><path fill-rule="evenodd" clip-rule="evenodd" d="M3.97 8.47a.75.75 0 011.06 0L12 15.44l6.97-6.97a.75.75 0 111.06 1.06l-7.5 7.5a.75.75 0 01-1.06 0l-7.5-7.5a.75.75 0 010-1.06z"/></svg><svg viewBox="0 0 24 24" id="header-btn" xmlns="http://www.w3.org/2000/svg"><path d="M4.241 7.746a.811.811 0 011.072-.081l.092.08L12 14.474l6.595-6.727a.811.811 0 011.072-.081l.092.08a.852.852 0 01.08 1.094l-.08.094-7.177 7.321a.811.811 0 01-1.072.081l-.092-.08-7.177-7.322a.852.852 0 010-1.187z"/></svg><svg viewBox="0 0 24 24" id="input-error" xmlns="http://www.w3.org/2000/svg"><path fill-rule="evenodd" clip-rule="evenodd" d="M2 12C2 6.478 6.478 2 12 2c5.523 0 10 4.478 10 10 0 5.523-4.477 10-10 10-5.522 0-10-4.477-10-10zm18.5 0a8.5 8.5 0 10-17 0 8.5 8.5 0 0017 0zm-8.505-4.546a.75.75 0 01.743.649l.007.101v4.42a.75.75 0 01-1.493.101l-.007-.102V8.204a.75.75 0 01.75-.75zm.76 8.342a.75.75 0 00-.75-.75l-.112.007a.75.75 0 00.102 1.493l.112-.007a.75.75 0 00.648-.743z"/></svg><svg viewBox="0 0 20 20" id="menu-cab" xmlns="http://www.w3.org/2000/svg"><path d="M7.631 17.31v-2.556c0-.65.53-1.178 1.187-1.183h2.405c.66 0 1.194.53 1.194 1.183v2.563a1.02 1.02 0 001.002 1.016h1.604c1.598 0 2.894-1.282 2.894-2.865v-7.27a2.033 2.033 0 00-.802-1.587l-5.483-4.373a2.65 2.65 0 00-3.287 0l-5.46 4.38c-.5.38-.795.965-.801 1.588v7.262c0 1.583 1.295 2.865 2.894 2.865H6.58c.571 0 1.034-.458 1.034-1.023"/></svg><svg viewBox="0 0 20 20" id="menu-cab-active" xmlns="http://www.w3.org/2000/svg"><path d="M7.612 17.311v-2.548c0-.65.532-1.178 1.187-1.178h2.395c.315 0 .616.124.839.345.222.221.347.52.347.833v2.548c-.002.27.105.53.297.723.192.191.453.3.726.3h1.634a2.883 2.883 0 002.036-.833c.54-.535.844-1.262.844-2.02V8.223a2.06 2.06 0 00-.746-1.585L11.61 2.23a2.581 2.581 0 00-3.29.06L2.89 6.636a2.062 2.062 0 00-.805 1.585v7.252a2.87 2.87 0 002.88 2.86H6.56c.566 0 1.026-.454 1.03-1.015l.022-.008z"/></svg><svg viewBox="0 0 20 20" id="menu-exit" xmlns="http://www.w3.org/2000/svg"><path d="M12.513 6.158V5.38a3.071 3.071 0 00-3.07-3.07H5.38a3.07 3.07 0 00-3.07 3.07v9.275a3.07 3.07 0 003.07 3.071h4.07a3.061 3.061 0 003.063-3.061v-.786m5.662-3.861H8.14m7.594-2.429l2.44 2.429-2.44 2.43"/></svg><svg viewBox="0 0 20 20" id="menu-exit-active" xmlns="http://www.w3.org/2000/svg"><path fill-rule="evenodd" clip-rule="evenodd" d="M8.246 9.358a.642.642 0 00-.653.642c0 .35.288.642.653.642h5.087v3.983c0 2.042-1.687 3.708-3.773 3.708H5.431c-2.077 0-3.764-1.658-3.764-3.7V5.375c0-2.05 1.695-3.708 3.773-3.708h4.137c2.069 0 3.756 1.658 3.756 3.7v3.991H8.246zm8.112-2.241l2.434 2.425a.636.636 0 010 .908l-2.434 2.425a.646.646 0 01-.45.192.644.644 0 01-.458-1.1l1.333-1.325h-3.45V9.359h3.45L15.45 8.034a.644.644 0 010-.909.636.636 0 01.908-.008z"/></svg><svg viewBox="0 0 20 20" id="menu-result" xmlns="http://www.w3.org/2000/svg"><path d="M13.097 13.52H7.08m6.017-3.49H7.08m2.296-3.48H7.08"/><path clip-rule="evenodd" d="M13.257 2.292l-6.407.003c-2.3.014-3.725 1.527-3.725 3.836v7.663c0 2.32 1.435 3.84 3.755 3.84l6.408-.003c2.3-.015 3.725-1.529 3.725-3.837V6.131c0-2.32-1.436-3.84-3.756-3.84z"/></svg><svg viewBox="0 0 20 20" id="menu-result-active" xmlns="http://www.w3.org/2000/svg"><path fill-rule="evenodd" clip-rule="evenodd" d="M6.508 1.667h6.984c2.575 0 4.008 1.483 4.008 4.025V14.3c0 2.583-1.433 4.033-4.008 4.033H6.508c-2.533 0-4.008-1.45-4.008-4.033V5.692c0-2.542 1.475-4.025 4.008-4.025zm.225 3.883v-.008h2.491a.653.653 0 01.001 1.308H6.732a.65.65 0 010-1.3zm0 5.067h6.534a.65.65 0 000-1.301H6.733a.651.651 0 000 1.3zm0 3.808h6.534a.652.652 0 00.583-.65.654.654 0 00-.583-.658H6.733a.662.662 0 00-.625 1.008.647.647 0 00.625.3z"/></svg><svg viewBox="0 0 20 20" id="menu-role" xmlns="http://www.w3.org/2000/svg"><path d="M14.662 9.11a2.418 2.418 0 100-4.836m1.112 7.463c.399.028.795.084 1.185.172.543.106 1.195.329 1.427.815.149.312.149.675 0 .987-.231.487-.884.708-1.427.82M5.242 9.11a2.418 2.418 0 110-4.836M4.13 11.737a7.856 7.856 0 00-1.186.172c-.542.106-1.195.329-1.426.815a1.146 1.146 0 000 .987c.23.487.884.708 1.426.82"/><path clip-rule="evenodd" d="M9.948 12.258c2.706 0 5.017.41 5.017 2.048 0 1.638-2.296 2.063-5.017 2.063-2.707 0-5.017-.41-5.017-2.049 0-1.638 2.296-2.062 5.017-2.062zm0-2.338a3.204 3.204 0 01-3.215-3.215A3.204 3.204 0 019.948 3.49a3.204 3.204 0 013.215 3.215A3.204 3.204 0 019.948 9.92z"/></svg><svg viewBox="0 0 20 20" id="menu-role-active" xmlns="http://www.w3.org/2000/svg"><path fill-rule="evenodd" clip-rule="evenodd" d="M13.465 6.86a3.506 3.506 0 01-3.507 3.529A3.506 3.506 0 016.45 6.86a3.505 3.505 0 013.508-3.528 3.505 3.505 0 013.507 3.528zm-3.507 9.807c-2.86 0-5.301-.454-5.301-2.267 0-1.814 2.426-2.284 5.3-2.284 2.86 0 5.301.454 5.301 2.268 0 1.813-2.425 2.283-5.3 2.283zm5.006-9.743c0 .999-.297 1.928-.82 2.701a.132.132 0 00.09.204c.13.022.265.035.402.039 1.37.036 2.598-.85 2.938-2.185.503-1.982-.974-3.761-2.854-3.761-.205 0-.4.021-.59.06a.11.11 0 00-.07.042c-.017.028-.004.066.014.091.565.796.89 1.768.89 2.81zm2.268 4.337c.92.18 1.525.55 1.776 1.086.212.44.212.952 0 1.392-.384.832-1.62 1.1-2.1 1.168-.1.015-.18-.071-.17-.17.246-2.307-1.706-3.4-2.212-3.652-.021-.011-.026-.029-.024-.04a.03.03 0 01.027-.02c1.094-.021 2.269.129 2.703.236zM5.364 9.867c.138-.004.272-.016.403-.04a.132.132 0 00.09-.203 4.804 4.804 0 01-.82-2.7c0-1.042.324-2.014.89-2.81.017-.025.03-.063.013-.091-.015-.023-.044-.036-.069-.042a2.934 2.934 0 00-.59-.06C3.4 3.921 1.922 5.7 2.426 7.683c.34 1.334 1.568 2.22 2.937 2.185zm.134 1.177c.002.012-.003.028-.024.04-.505.252-2.458 1.345-2.213 3.65.01.101-.068.187-.168.173-.48-.07-1.716-.337-2.1-1.17a1.597 1.597 0 010-1.39c.25-.537.855-.906 1.775-1.088.435-.106 1.61-.256 2.704-.236a.034.034 0 01.026.021z"/></svg><svg viewBox="0 0 20 20" id="menu-user" xmlns="http://www.w3.org/2000/svg"><circle cx="9.649" cy="6.065" r="3.982"/><path clip-rule="evenodd" d="M3.334 15.585c-.002-.28.061-.557.183-.81.381-.762 1.456-1.166 2.349-1.35a14.274 14.274 0 011.953-.274 20.872 20.872 0 013.653 0c.657.046 1.31.138 1.953.275.893.183 1.968.549 2.35 1.35.244.514.244 1.11 0 1.625-.382.8-1.457 1.167-2.35 1.342a13 13 0 01-1.953.282c-.989.084-1.983.1-2.974.046-.23 0-.45 0-.68-.046a12.852 12.852 0 01-1.944-.282c-.9-.175-1.968-.541-2.357-1.342a1.899 1.899 0 01-.183-.816z"/></svg><svg viewBox="0 0 20 20" id="menu-user-active" xmlns="http://www.w3.org/2000/svg"><path fill-rule="evenodd" clip-rule="evenodd" d="M14.412 6.076A4.395 4.395 0 0110 10.486a4.396 4.396 0 01-4.411-4.41A4.395 4.395 0 0110 1.666a4.394 4.394 0 014.412 4.41zM10 18.333c-3.615 0-6.667-.587-6.667-2.854 0-2.267 3.072-2.834 6.667-2.834 3.616 0 6.667.588 6.667 2.854 0 2.268-3.071 2.834-6.667 2.834z"/></svg><svg viewBox="0 0 24 24" id="modal-close" xmlns="http://www.w3.org/2000/svg"><path d="M17 7L7 17m10 0L7 7"/></svg><svg viewBox="0 0 20 20" id="more" xmlns="http://www.w3.org/2000/svg"><path d="M9.993 7.805c1.19 0 2.143.975 2.143 2.195 0 1.22-.953 2.195-2.143 2.195S7.85 11.22 7.85 10c0-1.22.952-2.195 2.143-2.195zM7.85 2.195c0 1.22.952 2.195 2.143 2.195 1.19 0 2.143-.975 2.143-2.195C12.136.975 11.183 0 9.993 0S7.85.976 7.85 2.195zm0 15.61c0 1.22.952 2.195 2.143 2.195 1.19 0 2.143-.976 2.143-2.195 0-1.22-.953-2.195-2.143-2.195s-2.143.975-2.143 2.195z"/></svg><svg viewBox="0 0 25 24" id="paper" xmlns="http://www.w3.org/2000/svg"><path fill-rule="evenodd" clip-rule="evenodd" d="M15.107 2.012a.755.755 0 00-.266 0H8.584C6.096 2.012 4 4.03 4 6.49v10.713c0 2.6 2.004 4.66 4.584 4.66h7.989c2.453 0 4.479-2.161 4.479-4.66V8.038a.75.75 0 00-.21-.52l-5.064-5.275a.75.75 0 00-.542-.231h-.13zm-.883 1.5h-5.64C6.912 3.512 5.5 4.872 5.5 6.49v10.713c0 1.781 1.342 3.16 3.084 3.16h7.989c1.602 0 2.979-1.468 2.979-3.16l-.001-8.22-.876.002c-.333 0-.713 0-1.135-.002a3.324 3.324 0 01-3.31-3.136l-.006-.189V3.511zm4.506 3.972h-1.186a1.824 1.824 0 01-1.82-1.825V4.353l3.006 3.131zm-3.946 7.324a.75.75 0 01.102 1.493l-.102.007H9.387a.75.75 0 01-.102-1.493l.102-.007h5.397zm-1.292-4.202a.75.75 0 00-.75-.75H9.386l-.101.006a.75.75 0 00.101 1.494h3.356l.102-.007a.75.75 0 00.648-.743z"/></svg><svg viewBox="0 0 20 20" id="paper-upload" xmlns="http://www.w3.org/2000/svg"><path clip-rule="evenodd" d="M12.28 2.302H6.737c-1.716 0-3.195 1.39-3.195 3.107v8.948c0 1.813 1.382 3.239 3.195 3.239h6.657c1.716 0 3.108-1.523 3.108-3.24V6.699L12.28 2.302z"/><path d="M12.062 2.292v2.424c0 1.183.957 2.143 2.14 2.146a189.3 189.3 0 002.295-.002M9.7 7.867v5.478m-2.365-3.102L9.7 7.867l2.366 2.376"/></svg><svg viewBox="0 0 20 20" id="paper-upload-active" xmlns="http://www.w3.org/2000/svg"><path fill-rule="evenodd" clip-rule="evenodd" d="M11.621 10.742a.61.61 0 00.867 0 .616.616 0 00.008-.875l-2.368-2.4a.639.639 0 00-.43-.184.64.64 0 00-.437.183l-2.36 2.4a.623.623 0 000 .876.61.61 0 00.867 0L9.08 9.408v4.025a.614.614 0 101.23 0V9.408l1.311 1.334zm4.486-3.22c.194-.003.405-.005.597-.005.206 0 .38.166.38.375v6.7c0 2.066-1.668 3.741-3.714 3.741H6.81c-2.153 0-3.893-1.758-3.893-3.925V5.425c0-2.067 1.658-3.758 3.72-3.758h4.407c.206 0 .38.175.38.383v2.683a2.785 2.785 0 002.755 2.784c.347 0 .655.002.926.005l.567.003c.118 0 .27-.002.435-.004zm.23-1.217c-.678.002-1.477 0-2.052-.006a1.681 1.681 0 01-1.664-1.68V2.421c0-.36.43-.538.677-.279a6864.9 6864.9 0 012.431 2.553l.892.936a.398.398 0 01-.284.673z"/></svg><svg viewBox="0 0 25 25" id="pass-close" xmlns="http://www.w3.org/2000/svg"><path fill-rule="evenodd" clip-rule="evenodd" d="M21.269 3.871a.79.79 0 00-1.105 0l-2.175 2.14c-1.68-1.154-3.556-1.766-5.489-1.766-2.142 0-4.221.75-6.022 2.153-1.78 1.377-3.262 3.363-4.33 5.798a.758.758 0 00-.001.608c.922 2.115 2.161 3.89 3.639 5.217l-2.053 2.02-.076.087a.76.76 0 00.076 1.001c.305.3.8.3 1.104 0L21.27 4.959l.075-.087a.76.76 0 00-.075-1zM6.892 16.932l2.227-2.191a3.92 3.92 0 01-.696-2.24c0-2.221 1.82-4.014 4.077-4.014a4.11 4.11 0 012.278.684l2.086-2.052c-1.362-.879-2.847-1.336-4.364-1.336-1.78 0-3.52.628-5.054 1.822-1.469 1.137-2.728 2.77-3.678 4.791l-.049.105.048.104c.826 1.765 1.89 3.232 3.125 4.327zm6.747-6.64a2.542 2.542 0 00-1.139-.268c-1.393 0-2.514 1.105-2.514 2.477 0 .4.094.78.271 1.12l3.382-3.329zm2.128 2.016l.106.012a.77.77 0 01.63.893c-.299 1.638-1.608 2.929-3.271 3.226a.78.78 0 01-.909-.62.77.77 0 01.63-.893 2.488 2.488 0 002.013-1.986.779.779 0 01.801-.632zm4.022-3.647a.79.79 0 011.094.152 16.446 16.446 0 011.97 3.382.758.758 0 010 .61c-2.164 4.933-6.046 7.95-10.353 7.95a9.23 9.23 0 01-2.885-.463.766.766 0 01-.493-.973.784.784 0 01.988-.486 7.641 7.641 0 002.39.384c3.443 0 6.647-2.356 8.618-6.373l.162-.342-.055-.122a14.94 14.94 0 00-1.34-2.303l-.25-.34a.76.76 0 01.154-1.076z"/></svg><svg viewBox="0 0 25 25" id="pass-open" xmlns="http://www.w3.org/2000/svg"><path fill-rule="evenodd" clip-rule="evenodd" d="M12.8 4.172l-.298-.005c-4.313 0-8.2 3.045-10.355 8.027a.772.772 0 000 .612l.15.337c2.126 4.662 5.803 7.549 9.903 7.685l.298.005c4.313 0 8.2-3.045 10.355-8.027a.772.772 0 00-.003-.62l-.145-.326c-2.132-4.672-5.81-7.552-9.905-7.688zm-.29 1.546l.248.005.279.015c3.33.236 6.393 2.705 8.243 6.761l-.01.025c-1.896 4.143-5.065 6.627-8.5 6.752l-.266.004-.268-.004-.277-.014c-3.227-.229-6.202-2.56-8.064-6.387l-.176-.376.163-.347c1.963-4.055 5.172-6.433 8.627-6.434zm-.01 2.733c-2.25 0-4.074 1.813-4.074 4.05 0 2.235 1.823 4.047 4.074 4.047 2.25 0 4.075-1.812 4.075-4.048 0-2.236-1.825-4.049-4.075-4.049zm0 1.553a2.504 2.504 0 012.512 2.496 2.504 2.504 0 01-2.512 2.495A2.503 2.503 0 019.988 12.5a2.503 2.503 0 012.512-2.496z"/></svg><svg viewBox="0 0 24 24" id="profile" xmlns="http://www.w3.org/2000/svg"><circle cx="11.579" cy="7.278" r="4.778"/><path clip-rule="evenodd" d="M4 18.701a2.215 2.215 0 01.22-.97c.457-.915 1.748-1.4 2.819-1.62a16.793 16.793 0 012.343-.33 25.059 25.059 0 014.385 0c.787.056 1.57.166 2.343.33 1.07.22 2.361.66 2.82 1.62a2.27 2.27 0 010 1.95c-.459.96-1.75 1.4-2.82 1.61a15.71 15.71 0 01-2.343.34c-1.188.1-2.38.119-3.57.054-.275 0-.54 0-.815-.054a15.43 15.43 0 01-2.334-.34c-1.08-.21-2.361-.65-2.828-1.61A2.279 2.279 0 014 18.7z"/></svg><svg viewBox="0 0 24 24" id="reset" xmlns="http://www.w3.org/2000/svg"><path d="M18 6L6 18m12 0L6 6"/></svg><svg viewBox="0 0 24 24" id="result-error" xmlns="http://www.w3.org/2000/svg"><path d="M12 22c5.523 0 10-4.477 10-10S17.523 2 12 2 2 6.477 2 12s4.477 10 10 10zm3-13l-6 6m0-6l6 6"/></svg><svg viewBox="0 0 24 24" id="result-success" xmlns="http://www.w3.org/2000/svg"><path d="M12 22c5.5 0 10-4.5 10-10S17.5 2 12 2 2 6.5 2 12s4.5 10 10 10z"/><path d="M7.75 12l2.83 2.83 5.67-5.66"/></svg><svg viewBox="0 0 20 20" id="results-result" xmlns="http://www.w3.org/2000/svg"><path d="M6.143 8.501v5.717m3.889-8.452v8.452m3.825-2.696v2.696"/><path clip-rule="evenodd" d="M13.905 1.667h-7.81c-2.722 0-4.428 1.926-4.428 4.654v7.358c0 2.728 1.698 4.654 4.428 4.654h7.81c2.73 0 4.428-1.926 4.428-4.654V6.321c0-2.728-1.698-4.654-4.428-4.654z"/></svg><svg viewBox="0 0 20 20" id="results-result-active" xmlns="http://www.w3.org/2000/svg"><path fill-rule="evenodd" clip-rule="evenodd" d="M6.109 1.667h7.782c2.834 0 4.434 1.607 4.443 4.442v7.783c0 2.833-1.609 4.442-4.443 4.442H6.11c-2.835 0-4.442-1.609-4.442-4.442V6.109c0-2.835 1.607-4.442 4.442-4.442zm3.932 13.217c.36 0 .659-.267.692-.625V5.767a.68.68 0 00-.316-.658.7.7 0 00-1.068.658v8.492a.702.702 0 00.692.625zm3.834 0c.35 0 .65-.267.692-.625v-2.734a.699.699 0 00-1.067-.658.671.671 0 00-.316.658v2.734a.689.689 0 00.691.625zm-7.026-.625a.689.689 0 01-.691.625.688.688 0 01-.691-.625V8.5a.7.7 0 01.325-.658.686.686 0 01.733 0c.224.142.35.4.324.658v5.759z"/></svg><svg viewBox="0 0 20 20" id="results-star" xmlns="http://www.w3.org/2000/svg"><path clip-rule="evenodd" d="M10.595 2.867l1.93 3.883a.665.665 0 00.5.364l4.321.624a.665.665 0 01.44.255.641.641 0 01-.07.86l-3.132 3.029c-.16.15-.23.37-.189.584l.75 4.273a.656.656 0 01-.543.743.724.724 0 01-.43-.066l-3.848-2.018a.646.646 0 00-.619 0L5.83 17.427a.677.677 0 01-.898-.276.667.667 0 01-.067-.416l.75-4.274a.657.657 0 00-.189-.583L2.277 8.851a.655.655 0 01-.003-.927l.003-.003a.758.758 0 01.377-.185l4.321-.624a.677.677 0 00.5-.365l1.929-3.88a.655.655 0 01.381-.333.665.665 0 01.509.037.678.678 0 01.301.296z"/></svg><svg viewBox="0 0 20 20" id="results-star-active" xmlns="http://www.w3.org/2000/svg"><path d="M14.932 11.933a.917.917 0 00-.266.809l.741 4.1a.9.9 0 01-.375.9.917.917 0 01-.975.066l-3.69-1.925a.943.943 0 00-.417-.109h-.226a.678.678 0 00-.225.075l-3.692 1.934a.973.973 0 01-.591.092.926.926 0 01-.742-1.06l.742-4.1a.932.932 0 00-.266-.815L1.94 8.983a.9.9 0 01-.224-.941.936.936 0 01.741-.625L6.6 6.816a.927.927 0 00.733-.508l1.825-3.741c.044-.084.1-.16.167-.225l.075-.059a.56.56 0 01.134-.108l.09-.033.143-.059h.35c.314.033.59.22.734.5L12.7 6.308a.926.926 0 00.692.508l4.141.6c.35.05.643.292.759.626.109.334.015.7-.242.941l-3.117 2.95z"/></svg><svg viewBox="0 0 16 16" id="search" xmlns="http://www.w3.org/2000/svg"><path d="M7.333 12.585c2.946 0 5.334-2.346 5.334-5.24s-2.388-5.24-5.334-5.24C4.388 2.105 2 4.451 2 7.345s2.388 5.24 5.333 5.24zM14 13.895l-2.9-2.85"/></svg><svg viewBox="0 0 20 20" id="table-btn" xmlns="http://www.w3.org/2000/svg"><path d="M14 11l-4.03 6L6 11h8zm-4-8L6 9h8l-4-6z"/></svg></svg>